# xmcd
#
# Track frame offsets: 
#        150
#        9195
#        25964
#        36898
#
# Disc length: 652 seconds
#
# Revision: 0
# Processed by: cddbd v1.5.2PL0 Copyright (c) Steve Scherf et al.
# Submitted via: ExactAudioCopy v0.95b4
#
DISCID=22028a04
DTITLE=Николай Охрий - Чужих стихов я не пою...
DYEAR=2006
DGENRE=Instrumental
TTITLE0=01 Дорож - А 1
TTITLE1=02 Дорож - А 2
TTITLE2=03 Дорож - А 3
TTITLE3=04 Дорож - А 4
EXTD=
EXTT0=
EXTT1=
EXTT2=
EXTT3=
PLAYORDER=
